<?xml version="1.0" encoding="UTF-8"?>
<svg id="Layer_1" xmlns="http://www.w3.org/2000/svg" version="1.1" viewBox="0 0 1218.1 63.5">
  <!-- Generator: Adobe Illustrator 30.2.1, SVG Export Plug-In . SVG Version: 2.1.1 Build 1)  -->
  <defs>
    <style>
      .st0 {
        fill: #fff;
      }
    </style>
  </defs>
  <path class="st0" d="M28,2.3c4.2,0,7.9.8,11.1,2.3,3.2,1.5,5.9,3.6,8,6.2s3.8,5.7,4.9,9.2c1.1,3.5,1.7,7.3,1.7,11.3s-.6,7.8-1.8,11.3c-1.2,3.5-2.8,6.6-4.9,9.2-2.1,2.6-4.5,4.7-7.4,6.2-2.8,1.5-5.9,2.2-9.2,2.2H4.7V2.3h23.4ZM28.1,48.9c2.3,0,4.3-.5,6-1.4,1.7-.9,3-2.2,4.1-3.9,1.1-1.6,1.9-3.5,2.4-5.6.5-2.1.8-4.3.8-6.7s-.2-4.6-.7-6.7c-.5-2.1-1.3-4-2.4-5.7-1.1-1.6-2.5-2.9-4.2-3.9-1.7-1-3.7-1.5-6-1.5h-11v35.3h11Z"/>
  <path class="st0" d="M59.9,2.3h36.1v11.3h-23.7v10.4h20.9v11.3h-20.9v13.6h23.7v11.3h-36.1V2.3Z"/>
  <path class="st0" d="M142.9,2.3h12.4v57.8h-11.8l-27.7-37.8v37.8h-12.4V2.3h11.6l28,38V2.3Z"/>
  <path class="st0" d="M198.8,2.3h14.9l-20.6,30.8v27.1h-12.4v-27.1l-20.6-30.8h14.9l12,17.8,11.9-17.8Z"/>
  <path class="st0" d="M255.2,30.4c2.3,1.4,4,3.1,5.2,5.2,1.2,2.1,1.8,4.6,1.8,7.3s-.6,5-1.9,7.3c-1.3,2.3-3,4.3-5.3,6-2.1,1.6-4.4,2.8-7.1,3.6-2.6.8-5.4,1.3-8.4,1.3-2.9,0-5.7-.4-8.4-1.2-2.7-.8-5-2-7.1-3.7-3.1-2.3-5.2-5.2-6.4-8.5l11.4-5.3c0,.5.2,1.2.6,2,.4.8,1,1.6,1.8,2.4.8.8,1.9,1.4,3.2,2,1.3.5,2.9.8,4.8.8s2.9-.2,4-.6c1.2-.4,2.1-.9,2.9-1.4.8-.6,1.4-1.2,1.8-2,.4-.7.6-1.5.6-2.2s-.3-1.7-.9-2.4c-.6-.8-1.5-1.4-2.7-1.8-2.2-.8-4.5-1.4-6.9-1.9-2.4-.5-4.8-1.2-7.1-2-2.3-.8-4.4-1.8-6.4-3.1-2-1.3-3.5-3.1-4.7-5.5-1-2.1-1.6-4.3-1.6-6.6s.6-5.1,1.8-7.6c1.2-2.4,2.9-4.5,5-6.2,2-1.6,4.3-2.8,6.8-3.6,2.5-.8,5.1-1.3,7.9-1.3s5.4.4,8,1.2,4.8,2,6.8,3.6c2,1.5,3.5,3.2,4.7,5.1l-9.3,6.4c-1.1-1.6-2.6-2.8-4.3-3.8-1.7-1-3.6-1.4-5.8-1.4s-5.2.7-6.8,2c-1.6,1.3-2.4,3-2.4,5.1s.4,1.9,1.3,2.6c.9.8,2.1,1.4,3.5,2,1.4.6,3.1,1.1,4.9,1.6,1.8.5,3.6.9,5.3,1.4,1.8.5,3.4.9,5,1.4,1.6.5,2.9,1,3.8,1.6Z"/>
  <path class="st0" d="M284.1,2.3h41.9v11.3h-14.8v46.6h-12.4V13.6h-14.8V2.3Z"/>
  <path class="st0" d="M358.6,2.3l24.2,57.8h-13.4l-5.2-12.4h-24.6l-5.1,12.4h-13.5l24.2-57.8h13.5ZM359.5,36.5l-7.6-18.2-7.6,18.2h15.2Z"/>
  <path class="st0" d="M429.5,19.6c0,1.8-.3,3.6-.8,5.3-.5,1.7-1.2,3.2-2.2,4.6-.9,1.4-2,2.6-3.3,3.7-1.3,1.1-2.7,1.9-4.2,2.6l19.2,24.6h-14.4l-17.9-23.3h-5.5v23.3h-12.4V2.3h25c2.3,0,4.4.4,6.5,1.3,2,.9,3.8,2.1,5.3,3.7,1.5,1.6,2.7,3.4,3.5,5.5.9,2.1,1.3,4.3,1.3,6.7ZM411.3,25.6c1.6,0,2.9-.6,4.1-1.8,1.1-1.2,1.7-2.6,1.7-4.3s-.6-3-1.7-4.2c-1.1-1.2-2.5-1.8-4.1-1.8h-11v12h11Z"/>
  <path class="st0" d="M479,2.3l24.2,57.8h-13.4l-5.2-12.4h-24.6l-5.1,12.4h-13.5l24.2-57.8h13.5ZM479.9,36.5l-7.6-18.2-7.6,18.2h15.2Z"/>
  <path class="st0" d="M544.5,28.7c2.3,1.6,4.1,3.6,5.5,6.1,1.4,2.5,2,5.2,2,8.2s-.5,4.6-1.4,6.7c-.9,2.1-2.2,3.9-3.8,5.5-1.6,1.6-3.4,2.8-5.5,3.7-2.1.9-4.3,1.3-6.7,1.3h-26.3V2.3h25.5c2.2,0,4.2.4,6.1,1.3,1.9.8,3.6,2,5,3.4,1.4,1.4,2.6,3.1,3.4,5,.8,1.9,1.2,3.9,1.2,6.1s-.4,4.4-1.3,6.2c-.9,1.8-2.1,3.3-3.7,4.4ZM520.8,24h13.1c1.5,0,2.7-.5,3.8-1.6,1-1,1.6-2.3,1.6-3.8s-.5-2.7-1.6-3.7c-1-1-2.3-1.5-3.8-1.5h-13.1v10.4ZM534.7,48.9c1.6,0,3-.7,4.2-2.1s1.7-3,1.7-4.8-.6-3.5-1.7-4.8-2.5-1.9-4.2-1.9h-13.9v13.6h13.9Z"/>
  <path class="st0" d="M593.9,2.3l24.2,57.8h-13.4l-5.2-12.4h-24.6l-5.1,12.4h-13.5l24.2-57.8h13.5ZM594.8,36.5l-7.6-18.2-7.6,18.2h15.2Z"/>
  <path class="st0" d="M662.8,2.3h12.4v57.8h-11.8l-27.7-37.8v37.8h-12.4V2.3h11.6l28,38V2.3Z"/>
  <path class="st0" d="M709.6,1.5c3.9,0,7.6.8,11.1,2.4,3.5,1.6,6.5,3.7,9.1,6.4,2.6,2.7,4.6,5.9,6.1,9.5,1.5,3.6,2.2,7.4,2.2,11.5s-.7,7.9-2.2,11.5c-1.5,3.6-3.5,6.8-6.1,9.5-2.6,2.7-5.6,4.9-9.1,6.5-3.5,1.6-7.2,2.4-11.1,2.4s-7.6-.8-11.1-2.4c-3.5-1.6-6.5-3.8-9.1-6.5-2.6-2.7-4.6-5.9-6.1-9.5-1.5-3.6-2.2-7.5-2.2-11.5s.7-7.9,2.2-11.5c1.5-3.6,3.5-6.7,6.1-9.5,2.6-2.7,5.6-4.9,9.1-6.4,3.5-1.6,7.2-2.4,11.1-2.4ZM709.6,48.9c2.2,0,4.3-.5,6.3-1.4,2-.9,3.7-2.2,5.1-3.8,1.5-1.6,2.6-3.5,3.5-5.6.8-2.1,1.3-4.4,1.3-6.9s-.4-4.7-1.3-6.9c-.8-2.1-2-4-3.5-5.6-1.5-1.6-3.2-2.9-5.1-3.8-2-.9-4-1.4-6.3-1.4s-4.3.5-6.3,1.4c-2,.9-3.7,2.2-5.1,3.8-1.5,1.6-2.6,3.5-3.5,5.6-.8,2.1-1.3,4.4-1.3,6.9s.4,4.7,1.3,6.9c.8,2.1,2,4,3.5,5.6,1.5,1.6,3.2,2.9,5.1,3.8,2,.9,4,1.4,6.3,1.4Z"/>
  <path class="st0" d="M788,2.3h13.5l-24.4,57.8h-13.6l-24.3-57.8h13.5l17.7,43.2,17.7-43.2Z"/>
  <path class="st0" d="M851.9,2.3c4.2,0,7.9.8,11.1,2.3,3.2,1.5,5.9,3.6,8,6.2s3.8,5.7,4.9,9.2c1.1,3.5,1.7,7.3,1.7,11.3s-.6,7.8-1.8,11.3c-1.2,3.5-2.8,6.6-4.9,9.2-2.1,2.6-4.5,4.7-7.4,6.2-2.8,1.5-5.9,2.2-9.2,2.2h-25.9V2.3h23.4ZM852,48.9c2.3,0,4.3-.5,6-1.4s3-2.2,4.1-3.9c1.1-1.6,1.9-3.5,2.4-5.6.5-2.1.8-4.3.8-6.7s-.2-4.6-.7-6.7c-.5-2.1-1.3-4-2.4-5.7-1.1-1.6-2.5-2.9-4.2-3.9-1.7-1-3.7-1.5-6-1.5h-11v35.3h11Z"/>
  <path class="st0" d="M883.8,2.3h36.1v11.3h-23.7v10.4h20.9v11.3h-20.9v13.6h23.7v11.3h-36.1V2.3Z"/>
  <path class="st0" d="M964,30.4c2.3,1.4,4,3.1,5.2,5.2,1.2,2.1,1.8,4.6,1.8,7.3s-.6,5-1.9,7.3c-1.3,2.3-3,4.3-5.3,6-2.1,1.6-4.4,2.8-7.1,3.6-2.6.8-5.4,1.3-8.4,1.3-2.9,0-5.7-.4-8.4-1.2s-5-2-7.1-3.7c-3.1-2.3-5.2-5.2-6.4-8.5l11.4-5.3c0,.5.2,1.2.6,2,.4.8,1,1.6,1.8,2.4.8.8,1.9,1.4,3.2,2,1.3.5,2.9.8,4.8.8s2.9-.2,4-.6c1.2-.4,2.1-.9,2.9-1.4.8-.6,1.4-1.2,1.8-2s.6-1.5.6-2.2-.3-1.7-.9-2.4c-.6-.8-1.5-1.4-2.7-1.8-2.2-.8-4.5-1.4-6.9-1.9-2.4-.5-4.8-1.2-7.1-2-2.3-.8-4.4-1.8-6.4-3.1-2-1.3-3.5-3.1-4.7-5.5-1-2.1-1.6-4.3-1.6-6.6s.6-5.1,1.8-7.6,2.9-4.5,5-6.2c2-1.6,4.3-2.8,6.8-3.6,2.5-.8,5.1-1.3,7.9-1.3s5.4.4,8,1.2,4.8,2,6.8,3.6c2,1.5,3.5,3.2,4.7,5.1l-9.3,6.4c-1.1-1.6-2.6-2.8-4.3-3.8-1.7-1-3.6-1.4-5.8-1.4s-5.2.7-6.8,2c-1.6,1.3-2.4,3-2.4,5.1s.4,1.9,1.3,2.6c.9.8,2.1,1.4,3.5,2,1.4.6,3.1,1.1,4.9,1.6,1.8.5,3.6.9,5.3,1.4,1.8.5,3.4.9,5,1.4,1.6.5,2.9,1,3.8,1.6Z"/>
  <path class="st0" d="M998,2.3v10.4h-4.3v37h4.3v10.4h-21.1v-10.4h4.3V12.8h-4.3V2.3h21.1Z"/>
  <path class="st0" d="M1033.8,27.5h21.9v21.2c-3.3,4.1-6.9,7.3-10.9,9.4-4,2.1-8.1,3.2-12.5,3.2s-7.6-.8-11.1-2.4c-3.5-1.6-6.5-3.8-9.1-6.5-2.6-2.7-4.6-5.9-6.1-9.5-1.5-3.6-2.2-7.5-2.2-11.5s.7-7.9,2.2-11.5c1.5-3.6,3.5-6.7,6.1-9.5,2.6-2.7,5.6-4.9,9.1-6.4,3.5-1.6,7.2-2.4,11.1-2.4s7.2.7,10.5,2c3.3,1.4,6.5,3.6,9.6,6.8l-7.2,8.7c-2.3-2.1-4.4-3.5-6.4-4.3-2-.7-4.1-1.1-6.4-1.1s-4.4.5-6.4,1.4c-2,.9-3.7,2.2-5.2,3.8-1.5,1.6-2.6,3.4-3.5,5.6-.8,2.1-1.3,4.4-1.3,6.9s.4,4.7,1.3,6.9c.8,2.1,2,4,3.5,5.6,1.5,1.6,3.2,2.9,5.2,3.8,2,.9,4.1,1.4,6.4,1.4s4-.4,6-1.1c2-.7,4-1.9,6-3.6v-6.3h-10.6v-10.4Z"/>
  <path class="st0" d="M1101.3,2.3h12.4v57.8h-11.8l-27.7-37.8v37.8h-12.4V2.3h11.6l28,38V2.3Z"/>
  <path class="st0" d="M1120.9,2.3h36.1v11.3h-23.7v10.4h20.9v11.3h-20.9v13.6h23.7v11.3h-36.1V2.3Z"/>
  <path class="st0" d="M1205.9,19.6c0,1.8-.3,3.6-.8,5.3-.5,1.7-1.2,3.2-2.2,4.6-.9,1.4-2,2.6-3.3,3.7s-2.7,1.9-4.2,2.6l19.2,24.6h-14.4l-17.9-23.3h-5.5v23.3h-12.4V2.3h25c2.3,0,4.4.4,6.5,1.3,2,.9,3.8,2.1,5.3,3.7,1.5,1.6,2.7,3.4,3.5,5.5.9,2.1,1.3,4.3,1.3,6.7ZM1187.7,25.6c1.6,0,2.9-.6,4.1-1.8,1.1-1.2,1.7-2.6,1.7-4.3s-.6-3-1.7-4.2c-1.1-1.2-2.5-1.8-4.1-1.8h-11v12h11Z"/>
</svg>